# xmcd CD database file
#
# Track frame offsets:
#	150
#	17640
#	40612
#
# Disc length: 773 seconds
#
# Revision: 0
# Processed by: cddbd v1.5.1PL0 Copyright (c) Steve Scherf et al.
# Submitted via: CDex 1.51
#
DISCID=16030303
DTITLE=森口博子 - 優しくなりたい
DYEAR=2005
DGENRE=JPop
TTITLE0=優しくなりたい
TTITLE1=出逢ってくれてありがとう
TTITLE2=優しくなりたい(Instrumental)
EXTD=YEAR: 2005
EXTT0=
EXTT1=
EXTT2=
PLAYORDER=
